<svg width="144" height="32" viewBox="0 0 144 32" fill="none" xmlns="http://www.w3.org/2000/svg">
<path d="M12 0H0V32H12V26.9992H5.0008V5.0008H12V0Z" fill="#0090FF"/>
<path d="M20 32V26.9992H26.9992V5.0008H20V0H32V32H20Z" fill="#0090FF"/>
<path d="M48.822 13.7156C47.538 13.7156 46.374 13.4396 45.33 12.8876C44.298 12.3236 43.482 11.5496 42.882 10.5656C42.294 9.56959 42 8.44759 42 7.19959C42 5.95159 42.294 4.83559 42.882 3.85159C43.482 2.85559 44.298 2.08159 45.33 1.52959C46.374 0.965594 47.544 0.683594 48.84 0.683594C49.932 0.683594 50.916 0.875594 51.792 1.25959C52.68 1.64359 53.424 2.19559 54.024 2.91559L52.152 4.64359C51.3 3.65959 50.244 3.16759 48.984 3.16759C48.204 3.16759 47.508 3.34159 46.896 3.68959C46.284 4.02559 45.804 4.49959 45.456 5.11159C45.12 5.72359 44.952 6.41959 44.952 7.19959C44.952 7.97959 45.12 8.67559 45.456 9.28759C45.804 9.89959 46.284 10.3796 46.896 10.7276C47.508 11.0636 48.204 11.2316 48.984 11.2316C50.244 11.2316 51.3 10.7336 52.152 9.73759L54.024 11.4656C53.424 12.1976 52.68 12.7556 51.792 13.1396C50.904 13.5236 49.914 13.7156 48.822 13.7156Z" fill="#262626"/>
<path d="M64.7807 3.81641V13.5004H62.1167V12.3484C61.7447 12.7684 61.3007 13.0924 60.7847 13.3204C60.2687 13.5364 59.7107 13.6444 59.1107 13.6444C57.8387 13.6444 56.8307 13.2784 56.0867 12.5464C55.3427 11.8144 54.9707 10.7284 54.9707 9.28841V3.81641H57.7787V8.87441C57.7787 10.4344 58.4327 11.2144 59.7407 11.2144C60.4127 11.2144 60.9527 10.9984 61.3607 10.5664C61.7687 10.1224 61.9727 9.46841 61.9727 8.60441V3.81641H64.7807Z" fill="#262626"/>
<path d="M70.278 13.6439C69.474 13.6439 68.688 13.5479 67.92 13.3559C67.152 13.1519 66.54 12.8999 66.084 12.5999L67.02 10.5839C67.452 10.8599 67.974 11.0879 68.586 11.2679C69.198 11.4359 69.798 11.5199 70.386 11.5199C71.574 11.5199 72.168 11.2259 72.168 10.6379C72.168 10.3619 72.006 10.1639 71.682 10.0439C71.358 9.92387 70.86 9.82187 70.188 9.73787C69.396 9.61787 68.742 9.47987 68.226 9.32387C67.71 9.16787 67.26 8.89187 66.876 8.49587C66.504 8.09987 66.318 7.53587 66.318 6.80387C66.318 6.19187 66.492 5.65188 66.84 5.18388C67.2 4.70387 67.716 4.33187 68.388 4.06787C69.072 3.80387 69.876 3.67188 70.8 3.67188C71.484 3.67188 72.162 3.74987 72.834 3.90587C73.518 4.04987 74.082 4.25387 74.526 4.51787L73.59 6.51587C72.738 6.03587 71.808 5.79587 70.8 5.79587C70.2 5.79587 69.75 5.87987 69.45 6.04787C69.15 6.21587 69 6.43187 69 6.69587C69 6.99587 69.162 7.20587 69.486 7.32587C69.81 7.44587 70.326 7.55988 71.034 7.66788C71.826 7.79988 72.474 7.94387 72.978 8.09987C73.482 8.24387 73.92 8.51388 74.292 8.90987C74.664 9.30588 74.85 9.85787 74.85 10.5659C74.85 11.1659 74.67 11.6999 74.31 12.1679C73.95 12.6359 73.422 13.0019 72.726 13.2659C72.042 13.5179 71.226 13.6439 70.278 13.6439Z" fill="#262626"/>
<path d="M82.0188 13.0318C81.7428 13.2358 81.4008 13.3918 80.9928 13.4998C80.5968 13.5958 80.1828 13.6438 79.7508 13.6438C78.5868 13.6438 77.6928 13.3498 77.0688 12.7618C76.4448 12.1738 76.1328 11.3098 76.1328 10.1698V1.67383H78.9408V4.03183H81.3348V6.19183H78.9408V10.1338C78.9408 10.5418 79.0428 10.8598 79.2468 11.0878C79.4508 11.3038 79.7448 11.4118 80.1288 11.4118C80.5608 11.4118 80.9448 11.2918 81.2808 11.0518L82.0188 13.0318Z" fill="#262626"/>
<path d="M87.6757 13.6439C86.6557 13.6439 85.7377 13.4339 84.9217 13.0139C84.1177 12.5819 83.4877 11.9879 83.0317 11.2319C82.5757 10.4759 82.3477 9.61788 82.3477 8.65788C82.3477 7.69788 82.5757 6.83987 83.0317 6.08387C83.4877 5.32787 84.1177 4.73987 84.9217 4.31987C85.7377 3.88787 86.6557 3.67188 87.6757 3.67188C88.6957 3.67188 89.6077 3.88787 90.4117 4.31987C91.2157 4.73987 91.8457 5.32787 92.3017 6.08387C92.7577 6.83987 92.9857 7.69788 92.9857 8.65788C92.9857 9.61788 92.7577 10.4759 92.3017 11.2319C91.8457 11.9879 91.2157 12.5819 90.4117 13.0139C89.6077 13.4339 88.6957 13.6439 87.6757 13.6439ZM87.6757 11.3399C88.3957 11.3399 88.9837 11.0999 89.4397 10.6199C89.9077 10.1279 90.1417 9.47388 90.1417 8.65788C90.1417 7.84188 89.9077 7.19387 89.4397 6.71387C88.9837 6.22187 88.3957 5.97587 87.6757 5.97587C86.9557 5.97587 86.3617 6.22187 85.8937 6.71387C85.4257 7.19387 85.1917 7.84188 85.1917 8.65788C85.1917 9.47388 85.4257 10.1279 85.8937 10.6199C86.3617 11.0999 86.9557 11.3399 87.6757 11.3399Z" fill="#262626"/>
<path d="M106.777 3.67188C107.989 3.67188 108.949 4.03187 109.657 4.75187C110.377 5.45987 110.737 6.52787 110.737 7.95587V13.4999H107.929V8.38787C107.929 7.61987 107.767 7.04987 107.443 6.67787C107.131 6.29387 106.681 6.10187 106.093 6.10187C105.433 6.10187 104.911 6.31787 104.527 6.74987C104.143 7.16987 103.951 7.79987 103.951 8.63987V13.4999H101.143V8.38787C101.143 6.86387 100.531 6.10187 99.307 6.10187C98.659 6.10187 98.143 6.31787 97.759 6.74987C97.375 7.16987 97.183 7.79987 97.183 8.63987V13.4999H94.375V3.81587H97.057V4.93187C97.417 4.52387 97.855 4.21187 98.371 3.99588C98.899 3.77988 99.475 3.67188 100.099 3.67188C100.783 3.67188 101.401 3.80988 101.953 4.08588C102.505 4.34987 102.949 4.73987 103.285 5.25587C103.681 4.75188 104.179 4.36188 104.779 4.08588C105.391 3.80988 106.057 3.67188 106.777 3.67188Z" fill="#262626"/>
<path d="M122.239 8.69387C122.239 8.72987 122.221 8.98188 122.185 9.44987H114.859C114.991 10.0499 115.303 10.5239 115.795 10.8719C116.287 11.2199 116.899 11.3939 117.631 11.3939C118.135 11.3939 118.579 11.3219 118.963 11.1779C119.359 11.0219 119.725 10.7819 120.061 10.4579L121.555 12.0779C120.643 13.1219 119.311 13.6439 117.559 13.6439C116.467 13.6439 115.501 13.4339 114.661 13.0139C113.821 12.5819 113.173 11.9879 112.717 11.2319C112.261 10.4759 112.033 9.61788 112.033 8.65788C112.033 7.70988 112.255 6.85787 112.699 6.10187C113.155 5.33387 113.773 4.73987 114.553 4.31987C115.345 3.88787 116.227 3.67188 117.199 3.67188C118.147 3.67188 119.005 3.87587 119.773 4.28387C120.541 4.69187 121.141 5.27987 121.573 6.04787C122.017 6.80387 122.239 7.68587 122.239 8.69387ZM117.217 5.79587C116.581 5.79587 116.047 5.97587 115.615 6.33587C115.183 6.69587 114.919 7.18787 114.823 7.81187H119.593C119.497 7.19987 119.233 6.71387 118.801 6.35387C118.369 5.98187 117.841 5.79587 117.217 5.79587Z" fill="#262626"/>
<path d="M126.289 5.09387C126.625 4.62587 127.075 4.27187 127.639 4.03187C128.215 3.79187 128.875 3.67188 129.619 3.67188V6.26388C129.307 6.23987 129.097 6.22787 128.989 6.22787C128.185 6.22787 127.555 6.45587 127.099 6.91187C126.643 7.35587 126.415 8.02787 126.415 8.92787V13.4999H123.607V3.81587H126.289V5.09387Z" fill="#262626"/>
<path d="M132.463 0C132.967 0 133.381 0.162 133.705 0.486C134.029 0.798 134.191 1.212 134.191 1.728C134.191 1.968 134.161 2.208 134.101 2.448C134.041 2.688 133.915 3.048 133.723 3.528L132.679 6.12H130.897L131.671 3.276C131.371 3.144 131.137 2.946 130.969 2.682C130.801 2.418 130.717 2.1 130.717 1.728C130.717 1.212 130.879 0.798 131.203 0.486C131.539 0.162 131.959 0 132.463 0Z" fill="#262626"/>
<path d="M138.702 13.6439C137.898 13.6439 137.112 13.5479 136.344 13.3559C135.576 13.1519 134.964 12.8999 134.508 12.5999L135.444 10.5839C135.876 10.8599 136.398 11.0879 137.01 11.2679C137.622 11.4359 138.222 11.5199 138.81 11.5199C139.998 11.5199 140.592 11.2259 140.592 10.6379C140.592 10.3619 140.43 10.1639 140.106 10.0439C139.782 9.92387 139.284 9.82187 138.612 9.73787C137.82 9.61787 137.166 9.47987 136.65 9.32387C136.134 9.16787 135.684 8.89187 135.3 8.49587C134.928 8.09987 134.742 7.53587 134.742 6.80387C134.742 6.19187 134.916 5.65188 135.264 5.18388C135.624 4.70387 136.14 4.33187 136.812 4.06787C137.496 3.80387 138.3 3.67188 139.224 3.67188C139.908 3.67188 140.586 3.74987 141.258 3.90587C141.942 4.04987 142.506 4.25387 142.95 4.51787L142.014 6.51587C141.162 6.03587 140.232 5.79587 139.224 5.79587C138.624 5.79587 138.174 5.87987 137.874 6.04787C137.574 6.21587 137.424 6.43187 137.424 6.69587C137.424 6.99587 137.586 7.20587 137.91 7.32587C138.234 7.44587 138.75 7.55988 139.458 7.66788C140.25 7.79988 140.898 7.94387 141.402 8.09987C141.906 8.24387 142.344 8.51388 142.716 8.90987C143.088 9.30588 143.274 9.85787 143.274 10.5659C143.274 11.1659 143.094 11.6999 142.734 12.1679C142.374 12.6359 141.846 13.0019 141.15 13.2659C140.466 13.5179 139.65 13.6439 138.702 13.6439Z" fill="#262626"/>
<path d="M45.33 31.1718C46.374 31.7238 47.538 31.9998 48.822 31.9998C49.914 31.9998 50.904 31.8078 51.792 31.4238C52.68 31.0398 53.424 30.4818 54.024 29.7498L52.152 28.0218C51.3 29.0178 50.244 29.5158 48.984 29.5158C48.204 29.5158 47.508 29.3478 46.896 29.0118C46.284 28.6638 45.804 28.1838 45.456 27.5718C45.12 26.9598 44.952 26.2638 44.952 25.4838C44.952 24.7038 45.12 24.0078 45.456 23.3958C45.804 22.7838 46.284 22.3098 46.896 21.9738C47.508 21.6258 48.204 21.4518 48.984 21.4518C50.244 21.4518 51.3 21.9438 52.152 22.9278L54.024 21.1998C53.424 20.4798 52.68 19.9278 51.792 19.5438C50.916 19.1598 49.932 18.9678 48.84 18.9678C47.544 18.9678 46.374 19.2498 45.33 19.8138C44.298 20.3658 43.482 21.1398 42.882 22.1358C42.294 23.1198 42 24.2358 42 25.4838C42 26.7318 42.294 27.8538 42.882 28.8498C43.482 29.8338 44.298 30.6078 45.33 31.1718Z" fill="#262626"/>
<path fill-rule="evenodd" clip-rule="evenodd" d="M65.1125 31.7841V22.1001H62.3045V23.1261C61.6085 22.3461 60.6425 21.9561 59.4065 21.9561C58.4945 21.9561 57.6665 22.1601 56.9225 22.5681C56.1905 22.9761 55.6145 23.5581 55.1945 24.3141C54.7745 25.0701 54.5645 25.9461 54.5645 26.9421C54.5645 27.9381 54.7745 28.8141 55.1945 29.5701C55.6145 30.3261 56.1905 30.9081 56.9225 31.3161C57.6665 31.7241 58.4945 31.9281 59.4065 31.9281C60.7265 31.9281 61.7345 31.5081 62.4305 30.6681V31.7841H65.1125ZM61.6565 28.9041C61.1885 29.3841 60.6005 29.6241 59.8925 29.6241C59.1725 29.6241 58.5785 29.3841 58.1105 28.9041C57.6425 28.4121 57.4085 27.7581 57.4085 26.9421C57.4085 26.1261 57.6425 25.4781 58.1105 24.9981C58.5785 24.5061 59.1725 24.2601 59.8925 24.2601C60.6005 24.2601 61.1885 24.5061 61.6565 24.9981C62.1245 25.4781 62.3585 26.1261 62.3585 26.9421C62.3585 27.7581 62.1245 28.4121 61.6565 28.9041Z" fill="#262626"/>
<path d="M73.0969 21.9561C74.2969 21.9561 75.2629 22.3161 75.9949 23.0361C76.7389 23.7561 77.1109 24.8241 77.1109 26.2401V31.7841H74.3029V26.6721C74.3029 25.9041 74.1349 25.3341 73.7989 24.9621C73.4629 24.5781 72.9769 24.3861 72.3409 24.3861C71.6329 24.3861 71.0689 24.6081 70.6489 25.0521C70.2289 25.4841 70.0189 26.1321 70.0189 26.9961V31.7841H67.2109V22.1001H69.8929V23.2341C70.2649 22.8261 70.7269 22.5141 71.2789 22.2981C71.8309 22.0701 72.4369 21.9561 73.0969 21.9561Z" fill="#262626"/>
<path d="M84.3371 31.7846L88.4231 22.1006H85.7231L82.9511 28.6886L80.2691 22.1006H77.3711L81.4391 31.7846H84.3371Z" fill="#262626"/>
<path fill-rule="evenodd" clip-rule="evenodd" d="M98.7394 22.1001V31.7841H96.0574V30.6681C95.3614 31.5081 94.3534 31.9281 93.0334 31.9281C92.1214 31.9281 91.2934 31.7241 90.5494 31.3161C89.8174 30.9081 89.2414 30.3261 88.8214 29.5701C88.4014 28.8141 88.1914 27.9381 88.1914 26.9421C88.1914 25.9461 88.4014 25.0701 88.8214 24.3141C89.2414 23.5581 89.8174 22.9761 90.5494 22.5681C91.2934 22.1601 92.1214 21.9561 93.0334 21.9561C94.2694 21.9561 95.2354 22.3461 95.9314 23.1261V22.1001H98.7394ZM93.5194 29.6241C94.2274 29.6241 94.8154 29.3841 95.2834 28.9041C95.7514 28.4121 95.9854 27.7581 95.9854 26.9421C95.9854 26.1261 95.7514 25.4781 95.2834 24.9981C94.8154 24.5061 94.2274 24.2601 93.5194 24.2601C92.7994 24.2601 92.2054 24.5061 91.7374 24.9981C91.2694 25.4781 91.0354 26.1261 91.0354 26.9421C91.0354 27.7581 91.2694 28.4121 91.7374 28.9041C92.2054 29.3841 92.7994 29.6241 93.5194 29.6241Z" fill="#262626"/>
<path d="M101.916 31.6401C102.684 31.8321 103.47 31.9281 104.274 31.9281C105.222 31.9281 106.038 31.8021 106.722 31.5501C107.418 31.2861 107.946 30.9201 108.306 30.4521C108.666 29.9841 108.846 29.4501 108.846 28.8501C108.846 28.1421 108.66 27.5901 108.288 27.1941C107.916 26.7981 107.478 26.5281 106.974 26.3841C106.47 26.2281 105.822 26.0841 105.03 25.9521C104.322 25.8441 103.806 25.7301 103.482 25.6101C103.158 25.4901 102.996 25.2801 102.996 24.9801C102.996 24.7161 103.146 24.5001 103.446 24.3321C103.746 24.1641 104.196 24.0801 104.796 24.0801C105.804 24.0801 106.734 24.3201 107.586 24.8001L108.522 22.8021C108.078 22.5381 107.514 22.3341 106.83 22.1901C106.158 22.0341 105.48 21.9561 104.796 21.9561C103.872 21.9561 103.068 22.0881 102.384 22.3521C101.712 22.6161 101.196 22.9881 100.836 23.4681C100.488 23.9361 100.314 24.4761 100.314 25.0881C100.314 25.8201 100.5 26.3841 100.872 26.7801C101.256 27.1761 101.706 27.4521 102.222 27.6081C102.738 27.7641 103.392 27.9021 104.184 28.0221C104.856 28.1061 105.354 28.2081 105.678 28.3281C106.002 28.4481 106.164 28.6461 106.164 28.9221C106.164 29.5101 105.57 29.8041 104.382 29.8041C103.794 29.8041 103.194 29.7201 102.582 29.5521C101.97 29.3721 101.448 29.1441 101.016 28.8681L100.08 30.8841C100.536 31.1841 101.148 31.4361 101.916 31.6401Z" fill="#262626"/>
</svg>
